<?xml version="1.0" standalone="no"?>
<!DOCTYPE svg PUBLIC "-//W3C//DTD SVG 1.1//EN" "http://www.w3.org/Graphics/SVG/1.1/DTD/svg11.dtd">
<svg xmlns="http://www.w3.org/2000/svg">
<metadata>Copyright (C) 2018 by original authors @ fontello.com</metadata>
<defs>
<font id="fontello" horiz-adv-x="1000" >
<font-face font-family="fontello" font-weight="400" font-stretch="normal" units-per-em="1000" ascent="850" descent="-150" />
<missing-glyph horiz-adv-x="1000" />
<glyph glyph-name="progress" unicode="&#xe800;" d="M0 850v-263h1000v263z m950-210h-223v157h223z m-950-422h1000v264h-1000z m406 211h544v-158h-544z m-406-579h1000v263h-1000z m638 211h312v-158h-312z" horiz-adv-x="1000" />

<glyph glyph-name="bin" unicode="&#xe801;" d="M166 628v-667c0-61 50-111 112-111h444c61 0 111 50 111 111v667h-667z m278-620h-111v453h111v-453z m222 0h-111v453h111v-453z m29 786l-56 56h-278l-55-56h-195v-110h778v110h-194z" horiz-adv-x="1000" />

<glyph glyph-name="briefcase" unicode="&#xe802;" d="M667 614h250c23 0 42-7 58-22 17-15 25-33 25-53v-302h-417v75h-166v-75h-417v302c0 20 8 38 25 53 16 15 36 22 58 22h250v76c0 20 9 38 25 53 16 15 36 22 59 22h166c23 0 43-7 59-22s25-33 25-53v-76z m333-453v-151c0-20-8-38-25-53-16-15-35-22-58-22h-834c-22 0-42 7-58 22-17 15-25 33-25 53v151h1000z m-583 453h166v76h-166v-76z" horiz-adv-x="1000" />

<glyph glyph-name="calendar" unicode="&#xe803;" d="M842 750h-49v100h-98v-100h-390v100h-98v-100h-49c-54 0-97-45-97-100l0-700c0-55 43-100 97-100h684c54 0 98 45 98 100v700c0 55-44 100-98 100z m0-800h-684v550h684v-550z m-488 450h-98v-100h98v100z m195 0h-97v-100h97v100z m196 0h-98v-100h98v100z m-391-131h-98v-100h98v100z m195 0h-97v-100h97v100z m196 0h-98v-100h98v100z m-391-131h-98v-100h98v100z m195 0h-97v-100h97v100z m196 0h-98v-100h98v100z" horiz-adv-x="1000" />

<glyph glyph-name="chartbar" unicode="&#xe804;" d="M0-38v282c0 20 9 36 27 50 18 14 39 21 64 21h91c25 0 46-7 64-21 18-14 27-30 27-50v-282h-273z m390 755c-17-14-26-30-26-50v-705h272v705c0 20-9 36-26 50-18 14-40 21-64 21h-91c-25 0-47-7-65-21z m364-211c-18-14-27-31-27-50v-494h273v494c0 19-9 36-27 50-18 13-39 20-64 20h-91c-25 0-46-7-64-20z" horiz-adv-x="1000" />

<glyph glyph-name="date" unicode="&#xe805;" d="M851 750h-50v100h-101v-100h-400v100h-100v-100h-50c-56 0-101-45-101-100v-700c0-55 45-100 101-100h701c55 0 100 45 100 100v700c0 55-45 100-100 100z m0-800h-701v550h701v-550z m-351 450h-250v-250h250v250z" horiz-adv-x="1000" />

<glyph glyph-name="downarrow" unicode="&#xe806;" d="M883 658l-383-383-383 383-117-116 500-500 500 500-117 116z m0 0" horiz-adv-x="1000" />

<glyph glyph-name="downtriangle" unicode="&#xe807;" d="M1000 600l-500-500-500 500h1000z" horiz-adv-x="1000" />

<glyph glyph-name="edit" unicode="&#xe808;" d="M0 89v-190h190l550 556-190 191-550-557z m885 512c20 20 20 50 0 70l-115 116c-20 19-50 19-70 0l-90-91 190-190 85 95z m-435-602l-100-100h650v100h-550z m0 0" horiz-adv-x="1000" />

<glyph glyph-name="export" unicode="&#xe809;" d="M889-39h-778v778h389v111h-389c-61 0-111-50-111-111v-778c0-61 50-111 111-111h778c61 0 111 50 111 111v389h-111v-389z m-278 889v-111h200l-544-545 78-77 544 544v-200h111v389h-389z m0 0" horiz-adv-x="1000" />

<glyph glyph-name="filterhide" unicode="&#xe80a;" d="M449 595l100-100h451v100h-551z m401-250h-151l100-100h51v100z m-500-350h300v100h-300v-100z m-189 754l-72-73 82-81h-171v-100h271l150-150h-271v-100h371l10-10 283-284 73 73-570 569-156 156z" horiz-adv-x="1000" />

<glyph glyph-name="folder" unicode="&#xe80b;" d="M889 683h-389l-111 112h-278c-61 0-111-50-111-112v-666c0-61 50-112 111-112h778c61 0 111 51 111 112v555c0 62-50 111-111 111z m0-666h-778v666h232l111-111h435v-555z" horiz-adv-x="1000" />

<glyph glyph-name="filtershow" unicode="&#xe80c;" d="M0 650v-100h1000v100h-1000z m150-350h700v100h-700v-100z m200-250h300v100h-300v-100z" horiz-adv-x="1000" />

<glyph glyph-name="group" unicode="&#xe80d;" d="M0 739h111v111c-61 0-111-50-111-111l0 0z m0-445h111v112h-111v-112z m222-444h111v111h-111v-111z m-222 667h111v111h-111v-111z m556 333h-112v-111h112v111z m333 0v-111h111c0 61-50 111-111 111l0 0z m-778-1000v111h-111c0-61 50-111 111-111l0 0z m-111 222h111v111h-111v-111z m333 778h-111v-111h111v111z m111-1000h112v111h-112v-111z m445 444h111v112h-111v-112z m0-444c61 0 111 50 111 111h-111v-111z m0 667h111v111h-111v-111z m0-445h111v111h-111v-111z m-222-222h111v111h-111v-111z m0 889h111v111h-111v-111z m-445-667h556v556h-556v-556z m111 445h334v-334h-334v334z m0 0" horiz-adv-x="1000" />

<glyph glyph-name="meter" unicode="&#xe80e;" d="M406 173c-34-61-11-112 37-140 48-29 102-24 137 37 34 62 252 610 233 621-19 12-372-457-407-518z m94 391c22 0 43-2 64-6 22 28 47 59 70 89-42 13-87 19-134 19-280 0-500-243-500-553 0-19 1-38 2-57 3-28 28-49 55-46 27 2 48 27 45 56-1 15-2 31-2 47 0 253 176 451 400 451z m361-65c-14-38-29-77-42-111 51-76 81-171 81-275 0-16-1-32-2-48-3-29 18-54 45-56 2 0 3 0 5 0 25 0 47 20 50 46 1 19 2 39 2 58 0 152-53 287-139 386z" horiz-adv-x="1000" />

<glyph glyph-name="shuffle" unicode="&#xe80f;" d="M723 72v389h-112v-389h-166l222-222 222 222h-166z m-390 778l-222-222h167v-389h111v389h167l-223 222z m0 0" horiz-adv-x="1000" />

<glyph glyph-name="sortdesc" unicode="&#xe810;" d="M394 70h280v93h-280v-93z m0 233h443v94h-443v-94z m0 327v-93h606v93h-606z m-171 0h-93v-383h-130l177-177 176 177h-130v383z" horiz-adv-x="1000" />

<glyph glyph-name="task" unicode="&#xe811;" d="M295 445l-70-70 225-225 500 500-70 70-430-430-155 155z m605-95c0-220-180-400-400-400s-400 180-400 400c0 220 180 400 400 400 40 0 75-5 110-15l80 80c-60 20-125 35-190 35-275 0-500-225-500-500s225-500 500-500 500 225 500 500h-100z" horiz-adv-x="1000" />

<glyph glyph-name="template" unicode="&#xe812;" d="M353-42h294v362h-294v-362z m-353 0h294v784h-294v-784z m706 0h294v362h-294v-362z m-353 784v-362h647v362h-647z m0 0" horiz-adv-x="1000" />

<glyph glyph-name="time" unicode="&#xe813;" d="M1000 657l-230 193-65-74 230-193 65 74z m-705 114l-65 74-230-188 65-74 230 188z m230-228h-75v-297l235-143 40 59-200 119v262z m-25 198c-250 0-450-198-450-445 0-248 200-446 450-446s450 198 450 446c0 247-200 445-450 445l0 0z m0-792c-195 0-350 154-350 347 0 193 155 346 350 346 195 0 350-153 350-346 0-193-155-347-350-347l0 0z m0 0" horiz-adv-x="1000" />

<glyph glyph-name="triangles" unicode="&#xe814;" d="M500-150l395 395h-790l395-395z m0 1000l-395-395h790l-395 395z" horiz-adv-x="1000" />

<glyph glyph-name="uparrow" unicode="&#xe815;" d="M883 42l-383 383-383-383-117 116 500 500 500-500-117-116z m0 0" horiz-adv-x="1000" />

<glyph glyph-name="uptriangle" unicode="&#xe816;" d="M1000 100l-500 500-500-500h1000z" horiz-adv-x="1000" />

<glyph glyph-name="users" unicode="&#xe817;" d="M682 396c77 0 136 59 136 137 0 78-59 137-136 137s-136-59-136-137c0-78 59-137 136-137l0 0z m-364 0c78 0 137 59 137 137 0 78-59 137-137 137-77 0-136-59-136-137 0-78 59-137 136-137l0 0z m0-92c-104 0-318-54-318-160v-114h636v114c0 106-213 160-318 160l0 0z m364 0c-14 0-27 0-46-4 55-37 91-92 91-156v-114h273v114c0 106-214 160-318 160l0 0z m0 0" horiz-adv-x="1000" />

<glyph glyph-name="activate" unicode="&#xe818;" d="M549 850h-97v-600h97v600z m96-127v-107c115-56 194-176 194-316 0-194-152-351-339-351-187 0-338 157-338 351 0 140 79 261 194 316v108c-169-61-290-228-290-424 0-248 195-450 434-450 240 0 434 202 434 450 0 195-120 362-289 423z" horiz-adv-x="1000" />

<glyph glyph-name="add" unicode="&#xe819;" d="M1000 279h-429v-428h-142v428h-429v142h429v428h142v-428h429v-142z m0 0" horiz-adv-x="1000" />

<glyph glyph-name="addcontainer" unicode="&#xe81a;" d="M972 728l-78 94c-11 17-33 28-61 28h-666c-28 0-50-11-67-28l-72-94c-17-22-28-45-28-72v-695c0-61 50-111 111-111h778c61 0 111 50 111 111v695c0 27-11 50-28 72z m-250-503h-166v-167h-112v167h-166v111h166v167h112v-167h166v-111z m-605 514l44 55h667l50-55h-761z" horiz-adv-x="1000" />

<glyph glyph-name="addrecurrent" unicode="&#xe81b;" d="M550 550h-100v-150h-150v-100h150v-150h100v150h150v100h-150v150z m-50 300c-275 0-500-225-500-500s225-500 500-500c275 0 500 225 500 500s-225 500-500 500l0 0z m0-900c-220 0-400 180-400 400s180 400 400 400c220 0 400-180 400-400s-180-400-400-400l0 0z m0 0" horiz-adv-x="1000" />

<glyph glyph-name="attention" unicode="&#xe81c;" d="M35-96h930c27 0 44 30 30 54l-465 820c-13 24-47 24-60 0l-465-820c-14-24 3-54 30-54z m513 146h-96v98h96v-98z m0 196h-96v195h96v-195z m0 0" horiz-adv-x="1000" />

<glyph glyph-name="sortasc" unicode="&#xe81d;" d="M394 630h280v-93h-280v93z m0-233h443v-94h-443v94z m0-327v93h606v-93h-606z m-171 560h-93v-383h-130l177-177 176 177h-130v383z" horiz-adv-x="1000" />

<glyph glyph-name="timetwo" unicode="&#xe81e;" d="M550 597h-100v-337h250v101h-150z m-50 253a500 500 0 1 1 500-500 502 502 0 0 1-500 500z m0-900a400 400 0 1 0 400 400 401 401 0 0 0-400-400z m0 0" horiz-adv-x="1000" />

<glyph glyph-name="back" unicode="&#xe81f;" d="M602 748l-314-315h1547v-417h-167v250h-1380l314-314-102-102-500 500 500 500z" horiz-adv-x="1835" />

<glyph glyph-name="more" unicode="&#xe820;" d="M251 725a126 126 0 1 1-125-125 126 126 0 0 1 125 125z m0-750a126 126 0 1 1-125-125 126 126 0 0 1 125 125z m0 375a126 126 0 1 1-125-125 126 126 0 0 1 125 125z m0 0" horiz-adv-x="251" />

<glyph glyph-name="range" unicode="&#xe821;" d="M0-150h1000v1000z m900 100h-165v490l165 170z m0 0" horiz-adv-x="1000" />

<glyph glyph-name="movehandle" unicode="&#xe822;" d="M285-150h143v143h-143z m0 286h143v143h-143z m0 286h143v142h-143z m0 285h143v143h-143z m-285-857h142v143h-142z m0 286h142v143h-142z m0 286h142v142h-142z m0 285h142v143h-142z" horiz-adv-x="428" />

<glyph glyph-name="envelope" unicode="&#xe823;" d="M1086 850h-965a123 123 0 0 1-121-125v-750a123 123 0 0 1 121-125h965a123 123 0 0 1 121 125v750a123 123 0 0 1-121 125z m0-250l-483-312-482 312v125l482-313 483 313z m0 0" horiz-adv-x="1207" />

<glyph glyph-name="folderalt" unicode="&#xe824;" d="M1000 725h-437l-125 125h-313a125 125 0 0 1-125-125v-750a126 126 0 0 1 125-125h875a126 126 0 0 1 125 125v625a125 125 0 0 1-125 125z" horiz-adv-x="1125" />

<glyph glyph-name="tick" unicode="&#xe825;" d="M123 367l-123-123 394-394 878 877-123 123-755-755z" horiz-adv-x="1271" />

<glyph glyph-name="sent" unicode="&#xe826;" d="M900 850h-800a100 100 0 0 1-100-100v-800a100 100 0 0 1 100-100h800a100 100 0 0 1 100 100v800a100 100 0 0 1-100 100z m0-700h-250a147 147 0 0 0-150-150 147 147 0 0 0-150 150h-250v600h800z m-200 301h-100v-151h-200v151h-100l200 200z m0 0" horiz-adv-x="1000" />

<glyph glyph-name="inbox" unicode="&#xe827;" d="M900 850h-800a100 100 0 0 1-100-100v-800a100 100 0 0 1 100-100h800a100 100 0 0 1 100 100v800a100 100 0 0 1-100 100z m0-700h-250a147 147 0 0 0-150-150 147 147 0 0 0-150 150h-250v600h800z m-200 300h-100v150h-200v-150h-100l200-200z m0 0" horiz-adv-x="1000" />

<glyph glyph-name="columns" unicode="&#xe828;" d="M314-150h126v1000h-126z m-314 0h126v1000h-126z m628 0h125v1000h-125z m313 1000v-1000h126v1000z" horiz-adv-x="1067" />

<glyph glyph-name="attach" unicode="&#xe829;" d="M488-150c-266 0-488 227-488 500s222 500 488 500h931c195 0 355-164 355-363s-160-364-355-364h-754a222 222 0 0 0-221 227 223 223 0 0 0 221 227h665v-136h-665a85 85 0 0 1-89-91c0-55 36-91 89-91h754a222 222 0 0 1 222 227 222 222 0 0 1-222 228h-931c-195 0-355-164-355-364s160-364 355-364h842v-136z m0 0" horiz-adv-x="1774" />

<glyph glyph-name="gdrive" unicode="&#xe82a;" d="M1122 218l-367 632h-361l366-632z m-670-52l-181-316h697l181 316z m-106 605l-346-605 181-316 351 605z m0 0" horiz-adv-x="1149" />

<glyph glyph-name="printer" unicode="&#xe82b;" d="M1021 572h-841c-102 0-180-72-180-166v-334h240v-222h721v222h240v334c0 94-78 166-180 166z m-180-611h-480v278h480z m180 389c-36 0-60 22-60 56s24 55 60 55 60-22 60-55-24-56-60-56z m-60 500h-721v-222h721z m0 0" horiz-adv-x="1201" />

<glyph glyph-name="forward" unicode="&#xe82c;" d="M527 600v250l528-500-528-500v250h-527v500z m0 0" horiz-adv-x="1055" />

<glyph glyph-name="reply" unicode="&#xe82d;" d="M486 583v267l-486-467 486-466v273c347 0 590-106 764-340-70 333-278 667-764 733z m0 0" horiz-adv-x="1250" />

<glyph glyph-name="replyall" unicode="&#xe82e;" d="M486 650v200l-486-467 486-466v200l-278 266z m417-67v267l-486-467 486-466v273c347 0 590-106 763-340-69 334-277 667-763 734z m0 0" horiz-adv-x="1666" />

<glyph glyph-name="refresh" unicode="&#xe82f;" d="M409 650v200l256-250-256-250v200c-169 0-307-135-307-300s139-300 307-300 307 135 307 300h102c0-220-184-400-409-400s-409 180-409 400 184 400 409 400z m0 0" horiz-adv-x="818" />

<glyph glyph-name="box" unicode="&#xe830;" d="M873 850h-748a125 125 0 0 1-125-125v-750a125 125 0 0 1 125-125h748a126 126 0 0 1 125 125v750a125 125 0 0 1-125 125z m0-875h-748v750h748z m0 0" horiz-adv-x="998" />

<glyph glyph-name="circle" unicode="&#xe831;" d="M500 850a500 500 0 1 1 500-500 502 502 0 0 1-500 500z m0-900a400 400 0 1 0 400 400 401 401 0 0 0-400-400z m0 0" horiz-adv-x="1000" />

<glyph glyph-name="cloud" unicode="&#xe832;" d="M1168 475c-42 213-222 375-445 375a439 439 0 0 1-398-250 374 374 0 0 1-325-375c0-206 163-375 361-375h783c169 0 301 138 301 313 0 162-126 300-277 312z m0 0" horiz-adv-x="1445" />

<glyph glyph-name="morealt" unicode="&#xe833;" d="M0 600h250v250h-250z m375-750h250v250h-250z m-375 0h250v250h-250z m0 375h250v250h-250z m375 0h250v250h-250z m375 625v-250h250v250z m-375-250h250v250h-250z m375-375h250v250h-250z m0-375h250v250h-250z m0 0" horiz-adv-x="1000" />

<glyph glyph-name="move" unicode="&#xe834;" d="M885 733l300-298h-1185v-169h1185l-300-299 118-117 499 500-499 500z m700 117v-1000h167v1000z m0 0" horiz-adv-x="1752" />

<glyph glyph-name="upload" unicode="&#xe835;" d="M1172 475a458 458 0 0 1-447 375 441 441 0 0 1-399-250 374 374 0 0 1-326-375c0-206 163-375 362-375h786c169 0 302 137 302 313 0 162-127 300-278 312z m-326-187v-250h-242v250h-181l302 312 302-312z m0 0" horiz-adv-x="1449" />

<glyph glyph-name="download" unicode="&#xe836;" d="M1172 475a458 458 0 0 1-447 375 441 441 0 0 1-399-250 374 374 0 0 1-326-375c0-206 163-375 362-375h786c169 0 302 137 302 313 0 162-127 300-278 312z m-567-125v250h241v-250h181l-302-312-302 312z m0 0" horiz-adv-x="1449" />

<glyph glyph-name="document" unicode="&#xe837;" d="M889 850h-778a111 111 0 0 1-111-111v-778a111 111 0 0 1 111-111h778a111 111 0 0 1 111 111v778a111 111 0 0 1-111 111z m-111-333h-556v111h556z m0-223h-556v112h556z m-167-222h-389v111h389z m0 0" horiz-adv-x="1000" />

<glyph glyph-name="comment" unicode="&#xe838;" d="M1000 750a100 100 0 0 1-100 100h-800a100 100 0 0 1-100-100v-600a100 100 0 0 1 100-100h700l200-200z m-200-500h-600v100h600z m0 150h-600v100h600z m0 150h-600v100h600z m0 0" horiz-adv-x="1000" />

<glyph glyph-name="change" unicode="&#xe839;" d="M286 64h499v143h-499v214l-286-285 286-286z m998 500l-285 286v-214h-500v-143h500v-214z m0 0" horiz-adv-x="1285" />

<glyph glyph-name="downloadalt" unicode="&#xe83a;" d="M111 405v-444h889v445l111 0v-445a111 111 0 0 0-111-111h-889a111 111 0 0 0-111 111v444z m778-16h-167v461h-333v-461h-167l334-317z m0 0" horiz-adv-x="1111" />

<glyph glyph-name="clipboard" unicode="&#xe83b;" d="M667 766h-167c-17 55-71 84-125 84s-109-29-126-84h-166c-46 0-83-48-83-98v-727c0-50 37-91 83-91h584c46 0 83 41 83 91v727c0 50-38 98-83 98z m-292-7c25 0 42-18 42-45s-17-46-42-46-42 18-42 46 17 45 42 45z m292-826h-584v730l83 20v-145h417v145l84 1z m0 8" horiz-adv-x="750" />
</font>
</defs>
</svg>
